<svg xmlns="http://www.w3.org/2000/svg" fill="none" viewBox="0 0 312 81" height="81" width="312">
<path fill="#808080" d="M76.1644 80V65.54H81.6844C84.5044 65.54 86.2244 66.98 86.2244 69.36C86.2244 71.02 85.5044 72.14 84.0644 72.74C85.6644 73.26 86.4844 74.42 86.4844 76.14C86.4844 78.54 84.7444 80 81.8844 80H76.1644ZM81.5644 67.28H78.1244V71.92H81.6844C83.3044 71.92 84.2244 71.04 84.2244 69.54C84.2244 68.1 83.2644 67.28 81.5644 67.28ZM81.8444 73.62H78.1244V78.26H81.8444C83.5244 78.26 84.4644 77.4 84.4644 75.9C84.4644 74.46 83.5044 73.62 81.8444 73.62Z"/>
<path fill="#808080" d="M117.978 72.76C117.978 77.16 115.098 80.24 110.998 80.24C106.918 80.24 104.078 77.16 104.078 72.76C104.078 68.38 106.938 65.28 111.018 65.28C115.118 65.28 117.978 68.36 117.978 72.76ZM115.918 72.76C115.918 69.4 113.958 67.18 111.018 67.18C108.078 67.18 106.138 69.4 106.138 72.76C106.138 76.12 108.078 78.36 111.018 78.36C113.958 78.36 115.918 76.1 115.918 72.76Z"/>
<path fill="#808080" d="M138.405 80H136.485V65.54H138.405L143.385 77.7L148.365 65.54H150.325V80H148.405V74.28C148.405 71.58 148.425 70.6 148.525 69.58L144.305 80H142.465L138.265 69.62C138.365 70.32 138.405 71.8 138.405 73.82V80Z"/>
<path fill="#808080" d="M169.692 80V65.54H175.212C178.032 65.54 179.752 66.98 179.752 69.36C179.752 71.02 179.032 72.14 177.592 72.74C179.192 73.26 180.012 74.42 180.012 76.14C180.012 78.54 178.272 80 175.412 80H169.692ZM175.092 67.28H171.652V71.92H175.212C176.832 71.92 177.752 71.04 177.752 69.54C177.752 68.1 176.792 67.28 175.092 67.28ZM175.372 73.62H171.652V78.26H175.372C177.052 78.26 177.992 77.4 177.992 75.9C177.992 74.46 177.032 73.62 175.372 73.62Z"/>
<path fill="#808080" d="M198.87 80H196.83L202.11 65.54H204.29L209.59 80H207.53L206.23 76.4H200.15L198.87 80ZM202.95 68.66L200.75 74.7H205.65L203.43 68.66C203.33 68.38 203.23 68.04 203.19 67.82C203.15 68.02 203.05 68.36 202.95 68.66Z"/>
<path fill="#808080" d="M229.487 74.12L224.587 65.54H226.787L230.007 71.32C230.207 71.66 230.327 71.94 230.487 72.28C230.667 71.92 230.707 71.8 230.967 71.32L234.167 65.54H236.307L231.447 74.12V80H229.487V74.12Z"/>
<path fill="black" d="M37.7666 15.5514C35.9784 7.52878 30.4852 0.802569 22.2162 0.802569C12.7122 0.802569 5.61591 8.88649 5.61591 22.0312C5.61591 34.497 12.4045 43.1985 22.2162 43.1985C30.1775 43.1985 35.9161 37.0274 37.7666 28.3873H43.1361C40.8531 37.0274 33.2006 44 22.2162 44C9.56535 44 0 34.8671 0 22.0312C0 9.13289 9.56535 0 22.2162 0C32.4594 0 40.5433 6.23343 43.1361 15.5514H37.7666Z"/>
<path fill="black" d="M65.1062 27.7704L59.1816 1.91348L52.8868 27.7704H65.1062ZM48.2595 43.3831L58.6264 0.617106H64.3037L74.2391 43.3831H68.6846L65.2913 28.573H52.7018L49.1234 43.3831H48.2595Z"/>
<path fill="black" d="M88.2475 1.41968V21.6607H92.5067C97.6902 21.6607 101.145 17.3411 101.145 11.6015C101.145 5.92427 97.6902 1.41968 92.5067 1.41968H88.2475ZM82.8177 0.617115H94.9124C101.64 0.617115 106.638 5.24643 106.638 11.6015C106.638 17.0324 103.059 21.0442 97.8752 22.1545L107.872 43.3831H102.196L92.6294 22.4632H88.2475V43.3831H82.8177V0.617115Z"/>
<path fill="black" d="M121.695 1.41968V23.5746H125.893C131.63 23.5746 135.519 18.8226 135.519 12.5891C135.519 6.35673 131.63 1.41968 125.893 1.41968H121.695ZM116.265 0.617115H128.237C135.519 0.617115 141.073 5.61551 141.073 12.5891C141.073 19.5628 135.519 24.3761 128.237 24.3761H121.695V43.3831H116.265V0.617115Z"/>
<path fill="black" d="M148.91 0.617106H169.399V1.41967H154.34V21.5993H167.794V22.4009H154.34V42.5805H169.399V43.3831H148.91V0.617106Z"/>
<path fill="black" d="M201.551 1.41968V42.5805H201.859C211.055 42.5805 218.029 34.0652 218.029 21.9694C218.029 9.93607 211.055 1.41968 201.859 1.41968H201.551ZM196.12 0.617115H201.859C214.263 0.617115 223.644 9.44227 223.644 21.9694C223.644 34.4966 214.263 43.3831 201.859 43.3831H196.12V0.617115Z"/>
<path fill="black" d="M233.27 0.617587H238.701V43.3836H233.27V0.617587Z"/>
<path fill="black" d="M264.743 27.7704L258.819 1.91348L252.525 27.7704H264.743ZM247.897 43.3831L258.265 0.617106H263.941L273.877 43.3831H268.323L264.929 28.573H252.34L248.761 43.3831H247.897Z"/>
<path fill="black" d="M282.455 0.617106H288.256L297.203 25.6101L305.905 0.617106H311.274V43.3831H305.905V3.08512L294.921 34.3739H294.798L283.319 2.9011V43.3831H282.455V0.617106Z"/>
</svg>