<svg width="71" height="37" viewBox="0 0 71 37" fill="none" xmlns="http://www.w3.org/2000/svg">
<path d="M1.4471 0.00265784C1.44533 3.07035 1.41789 6.13893 1.4533 9.20662C1.471 10.7945 1.60199 12.3726 2.28527 13.8604C3.27036 16.0067 5.16533 16.5679 7.11428 16.4112C8.31003 16.3147 9.37743 15.9332 10.2528 15.0712C11.0617 14.2755 11.4105 13.2576 11.5831 12.1955C11.7371 11.2423 11.7813 10.2634 11.7893 9.29513C11.8141 6.19734 11.8008 3.10044 11.8026 0.00265784C12.0088 0.00265784 12.2159 0.00265784 12.4221 0.00265784C12.9142 0.5638 13.4267 1.1099 13.8949 1.69051C14.6968 2.68711 15.4686 3.70761 16.2581 4.71483C17.8742 6.77796 19.4913 8.8402 21.111 10.8998C22.0031 12.0336 23.8706 14.3339 23.991 14.3967C23.991 9.61199 23.991 4.8768 23.991 0.107097C24.2371 0.107097 24.4203 0.107097 24.6398 0.107097C24.6398 5.65125 24.6398 11.2016 24.6398 16.7812C24.2229 16.8369 23.9158 16.8466 23.5927 16.4262C21.9084 14.2312 20.1648 12.0814 18.4513 9.90849C16.6563 7.63206 14.872 5.34678 13.0806 3.0677C12.9328 2.86324 12.5097 2.22244 12.4664 2.23749C12.4664 2.40388 12.4664 2.90484 12.4664 3.07123C12.4646 5.66718 12.469 8.26401 12.4593 10.86C12.4549 12.115 12.1929 13.309 11.5937 14.4268C10.6024 16.2775 8.94728 16.9812 6.97266 17.0989C5.83533 17.167 4.7157 17.0431 3.62971 16.6395C2.19853 16.1085 1.23822 15.1057 0.672652 13.7259C0.183202 12.5301 -0.00178157 11.2671 0.00175875 9.97311C0.00972449 6.84611 0.00264621 3.71823 0.00972687 0.591239C0.0106119 0.393866 0.0823044 0.197373 0.121248 0C0.562019 0.00265525 1.00456 0.00265784 1.4471 0.00265784Z" fill="black"/>
<path d="M70.0913 36.9009L69.8541 33.7872C69.7859 32.3693 69.7364 30.9505 69.662 29.5335C69.5629 27.6394 69.4408 25.7462 69.3337 23.853C69.2912 23.106 69.2513 22.3599 69.2124 21.6138L69.131 19.9728H68.3964L67.8095 21.1854C67.2617 22.2846 66.2013 24.4062 65.6446 25.5099C64.6117 27.5571 63.5771 29.6034 62.5362 31.6453C62.199 32.3064 61.8379 32.9543 61.4529 33.6739C61.3281 33.473 61.2272 33.3331 61.1502 33.1809C60.7926 32.471 60.4466 31.755 60.089 31.0452C59.1481 29.1768 58.202 27.311 57.2594 25.4426C56.507 23.9504 55.7574 22.4563 55.0015 20.9659L55.0033 20.965C55.0033 20.965 54.5209 19.9719 54.4988 19.9719C54.4758 19.9719 53.7987 19.9719 53.7987 19.9719C53.7987 19.9719 53.789 20.0684 53.7739 20.2118C53.7465 20.3091 53.7306 20.4472 53.7137 20.6437C53.7022 20.7827 53.6907 20.9216 53.6792 21.0606C53.6695 21.1783 53.6606 21.296 53.6509 21.4146C53.6491 21.4314 53.6482 21.4429 53.6482 21.4465H53.6491C53.5057 23.2149 53.373 24.9841 53.25 26.7543C53.1712 27.8846 53.1437 29.0175 53.065 30.1477C52.9446 31.8789 52.803 33.6084 52.6764 35.3387H52.6755C52.6755 35.3387 52.5835 36.4831 52.5534 36.8009C52.549 36.8451 52.5463 36.8726 52.5445 36.8796C52.533 36.9381 53.5199 36.7327 53.5226 36.7318C53.5429 36.3946 53.5624 36.0565 53.5819 35.7193L53.5827 35.7016C53.8199 31.4983 53.9704 27.2747 54.3129 23.0555C54.4731 23.1715 55.7282 25.663 56.2955 26.7782C57.0292 28.2218 57.7878 29.6521 58.5224 31.0956C59.1003 32.2312 59.6641 33.3747 60.2394 34.5121H60.2386L60.782 35.6361H61.3246L62.0742 34.0226C62.1078 33.9544 62.1415 33.8863 62.1751 33.8182C63.0213 32.1347 63.87 30.4531 64.7153 28.7688C65.58 27.0464 66.4403 25.3214 67.3077 23.5999C67.4157 23.3866 67.5555 23.1892 67.6812 22.9847C67.729 22.9954 68.2937 32.1701 68.5327 36.8088C68.5344 36.8088 68.5362 36.8088 68.5389 36.8088C68.5424 36.8664 68.5442 36.9009 68.5442 36.9009H70.0913Z" fill="black"/>
<path d="M52.5712 36.5955L52.5447 36.9009H53.5192L53.5395 36.4565L52.5712 36.5955Z" fill="black"/>
<path d="M30.0566 8.45609C30.0566 5.81678 30.0637 3.17746 30.0486 0.53815C30.0468 0.169956 30.1522 0.0593234 30.5204 0.0646339C31.5249 0.0805654 31.5249 0.0646349 31.5249 1.05593C31.5249 6.09912 31.5249 11.1414 31.5249 16.1846C31.5249 16.8166 31.5249 16.8237 30.9116 16.8148C29.999 16.8024 30.0575 16.9901 30.0566 15.9766C30.0557 13.4692 30.0566 10.9626 30.0566 8.45609Z" fill="black"/>
<path d="M1.43914 0.00268555H0V3.21908H1.43914V0.00268555Z" fill="black"/>
<path d="M24.6381 16.6572V16.9732H24.0185L23.4539 16.2483L24.6381 16.6572Z" fill="black"/>
<path d="M31.5258 0.0664062H30.0486V16.9741H31.5258V0.0664062Z" fill="black"/>
<path d="M31.5258 19.9727H30.0486V36.8804H31.5258V19.9727Z" fill="black"/>
<path d="M48.7609 0.0735015C48.4927 0.0735015 48.2608 0.0611114 48.0396 0.0690772L47.6112 0.0664193L47.5422 0.286809C47.5351 0.300085 47.5289 0.312476 47.5253 0.324867C47.5023 0.400099 47.4802 0.476216 47.4572 0.551448C47.4474 0.584196 47.4377 0.616943 47.428 0.649691L47.42 0.675356H47.4209C47.1678 1.53035 42.7247 14.5968 42.7247 14.5968C42.6769 14.588 37.0654 0.0947426 37.0654 0.0947426L36.8079 0.0885464C36.5919 0.0708447 36.3742 0.068193 36.1538 0.0699631C36.1281 0.0699631 36.1025 0.0708491 36.0768 0.0708491H36.0706C36.0458 0.0708491 36.021 0.071735 35.9963 0.071735L35.9954 0.0708491H35.4829C35.4829 0.0708491 41.1111 14.5844 41.4758 15.5261L41.9537 16.8281H41.9953H42.3264H42.4582L42.8486 15.9165C43.061 15.3987 48.5104 0.807234 48.7609 0.0735015Z" fill="black"/>
<path d="M35.7341 36.8726C36.0023 36.8726 36.2342 36.8849 36.4555 36.877L36.8839 36.8796L41.7695 22.2528C41.8173 22.2616 43.7052 26.995 44.2654 28.4731C45.2204 30.9912 47.4287 36.8522 47.4287 36.8522L47.6863 36.8584C47.9022 36.8761 48.12 36.8788 48.3403 36.877C48.366 36.877 48.3917 36.8761 48.4173 36.8761H48.4235C48.4483 36.8761 48.4731 36.8752 48.4979 36.8752L48.4988 36.8761H49.0112L43.0192 21.3172L42.5404 20.0073H42.4988H42.1678H42.0359C42.0359 20.0073 35.9846 36.1335 35.7341 36.8726Z" fill="black"/>
<path d="M25.6098 26.0011C25.3213 24.5522 24.6478 23.291 23.5414 22.3076C22.0757 21.0048 20.2799 20.395 18.3708 20.125C17.4795 19.9984 16.5855 19.9409 15.6907 19.9347L15.6943 19.9338L15.6226 19.9347C15.4013 19.9338 15.1791 19.9365 14.9579 19.9418L12.0645 19.9728V20.6862C12.0637 20.7074 12.0637 20.7295 12.0637 20.7525C12.0734 25.6196 12.0769 30.4876 12.061 35.3546C12.0601 35.6095 12.0592 35.8653 12.0583 36.1202C12.0583 36.1246 12.0592 36.1291 12.0601 36.1335L12.0583 37L14.4454 36.9982C14.449 36.9991 14.4534 36.9991 14.4569 37C15.2243 37 16.8874 36.9336 16.9546 36.9274C18.5371 36.7973 20.0621 36.4663 21.4898 35.737C23.1847 34.8705 24.4353 33.5774 25.139 31.8311C25.8984 29.9521 26.0055 27.9863 25.6098 26.0011ZM23.6503 31.7134C22.7554 34.2235 20.8915 35.6865 18.2734 36.2105C17.0812 36.4495 13.4895 36.3548 13.4895 36.3548H13.4851L13.4798 36.3521V35.6387C13.5081 33.2331 13.4931 30.8265 13.4931 28.42C13.4931 26.1683 13.4984 23.9176 13.4878 21.6659H13.4798V20.4622H14.8056V20.4631C16.3368 20.3649 17.8503 20.4914 19.3231 20.988C21.827 21.8332 23.4414 23.4945 23.9893 26.125C24.384 28.0253 24.2937 29.9069 23.6503 31.7134Z" fill="black"/>
</svg>
